:FULLY-SPECIFIED
:FORCE-ALL-JOINTS-BE-3DOF
:DEGREES
374
root 6.20061 16.5031 -15.9067 9.40238 -17.0682 -6.14635
lfemur -45.7421 22.9259 -13.2529
ltibia 68.4839 0 0
lfoot -10.6324 -1.86995 0
ltoes 13.606 0 0
rfemur -24.6912 -3.5379 31.2745
rtibia 41.8522 0 0
rfoot -21.4388 0.653477 0
rtoes 17.8221 0 0
lowerback 5.27647 1.58098 3.4342
upperback 2.63209 2.2558 1.03827
thorax -0.153713 1.14587 -0.97455
lowerneck -7.8912 -1.26858 2.92487
upperneck -0.651099 -2.00222 2.13169
head 1.10838 -0.965928 0.105738
lclavicle -1.08823e-14 7.82043e-15 0
lhumerus -40.2148 -23.1494 94.9225
lradius 56.4064 0 0
lwrist 19.0545 0 0
lhand -21.5135 2.71581 0
lfingers 7.12502 0 0
lthumb 4.8785 32.6391 0
rclavicle -1.08823e-14 7.82043e-15 0
rhumerus -37.4498 12.7855 -93.4813
rradius 60.977 0 0
rwrist 9.47596 0 0
rhand -9.12816 -19.263 0
rfingers 7.12502 0 0
rthumb 16.823 -768.553 0
375
root 6.15117 16.5102 -15.7642 9.46428 -17.8863 -6.30378
lfemur -46.1635 22.5124 -13.5825
ltibia 65.403 0 0
lfoot -10.1267 -1.07765 0
ltoes 13.4698 0 0
rfemur -23.763 -2.85456 31.3144
rtibia 41.3937 0 0
rfoot -21.7063 0.658684 0
rtoes 17.9407 0 0
lowerback 5.24153 1.76674 3.54983
upperback 2.59904 2.50666 0.973097
thorax -0.148956 1.27219 -1.11708
lowerneck -7.79628 -1.18044 3.08429
upperneck -0.540168 -1.89634 2.05636
head 1.12567 -0.912845 0.059405
lclavicle -1.5549e-15 9.47793e-15 0
lhumerus -40.0587 -23.1044 94.565
lradius 56.0117 0 0
lwrist 18.5593 0 0
lhand -21.7661 2.47183 0
lfingers 7.12502 0 0
lthumb 4.63466 32.4006 0
rclavicle -1.5549e-15 9.47793e-15 0
rhumerus -37.5828 13.1038 -93.5952
rradius 60.294 0 0
rwrist 9.7597 0 0
rhand -9.41542 -18.9819 0
rfingers 7.12502 0 0
rthumb 16.5464 -768.295 0
376
root 6.10027 16.5182 -15.6175 9.51098 -18.7059 -6.45461
lfemur -46.4311 22.0168 -13.8285
ltibia 62.1417 0 0
lfoot -9.59074 -0.19013 0
ltoes 13.3686 0 0
rfemur -22.7886 -2.17795 31.3459
rtibia 40.904 0 0
rfoot -21.9644 0.656742 0
rtoes 18.0304 0 0
lowerback 5.19373 1.95322 3.65645
upperback 2.56551 2.75747 0.904697
thorax -0.136916 1.39855 -1.25717
lowerneck -7.69271 -1.0956 3.24503
upperneck -0.429944 -1.79456 1.9893
head 1.14145 -0.86167 0.0153224
lclavicle 4.53773e-15 8.58311e-15 0
lhumerus -39.93 -23.0285 94.2138
lradius 55.6407 0 0
lwrist 18.1216 0 0
lhand -21.9714 2.26792 0
lfingers 7.12502 0 0
lthumb 4.43642 32.2011 0
rclavicle 4.53773e-15 8.58311e-15 0
rhumerus -37.7283 13.4214 -93.7159
rradius 59.625 0 0
rwrist 9.98398 0 0
rhand -9.78248 -18.7569 0
rfingers 7.12502 0 0
rthumb 16.193 -768.099 0
377
root 6.04966 16.5266 -15.4715 9.54082 -19.4973 -6.5948
lfemur -46.5379 21.4468 -13.9785
ltibia 58.8214 0 0
lfoot -9.05342 0.77396 0
ltoes 13.3124 0 0
rfemur -21.8024 -1.53559 31.3694
rtibia 40.4031 0 0
rfoot -22.2066 0.648721 0
rtoes 18.0887 0 0
lowerback 5.13507 2.13296 3.75354
upperback 2.53273 2.99841 0.8355
thorax -0.118092 1.52004 -1.39158
lowerneck -7.58426 -1.01667 3.40228
upperneck -0.324194 -1.70002 1.93155
head 1.1552 -0.814005 -0.0255015
lclavicle 7.81029e-15 5.64016e-15 0
lhumerus -39.8337 -22.9264 93.881
lradius 55.3065 0 0
lwrist 17.7602 0 0
lhand -22.1187 2.11577 0
lfingers 7.12502 0 0
lthumb 4.29419 32.052 0
rclavicle 7.81029e-15 5.64016e-15 0
rhumerus -37.8813 13.7291 -93.8398
rradius 58.993 0 0
rwrist 10.1453 0 0
rhand -10.2095 -18.5961 0
rfingers 7.12502 0 0
rthumb 15.7818 -767.971 0
378
root 6.00106 16.535 -15.331 9.55212 -20.2307 -6.7203
lfemur -46.477 20.8099 -14.0196
ltibia 55.5634 0 0
lfoot -8.54354 1.79598 0
ltoes 13.3112 0 0
rfemur -20.8386 -0.955006 31.386
rtibia 39.9113 0 0
rfoot -22.4266 0.635694 0
rtoes 18.1131 0 0
lowerback 5.06754 2.29853 3.84057
upperback 2.50193 3.21963 0.767939
thorax -0.0929831 1.63174 -1.51709
lowerneck -7.47475 -0.946278 3.55124
upperneck -0.226685 -1.61586 1.88412
head 1.16637 -0.771456 -0.0620584
lclavicle 8.67743e-15 1.1533e-15 0
lhumerus -39.7749 -22.8027 93.5787
lradius 55.0223 0 0
lwrist 17.4935 0 0
lhand -22.1972 2.02707 0
lfingers 7.12502 0 0
lthumb 4.21836 31.965 0
rclavicle 8.67743e-15 1.1533e-15 0
rhumerus -38.0372 14.0181 -93.9634
rradius 58.421 0 0
rwrist 10.2403 0 0
rhand -10.6765 -18.5075 0
rfingers 7.12502 0 0
rthumb 15.3321 -767.918 0
379
root 5.95621 16.5429 -15.2007 9.54319 -20.8765 -6.8271
lfemur -46.2414 20.1137 -13.9394
ltibia 52.4892 0 0
lfoot -8.08989 2.85728 0
ltoes 13.3749 0 0
rfemur -19.9317 -0.463717 31.3962
rtibia 39.4485 0 0
rfoot -22.618 0.618733 0
rtoes 18.1011 0 0
lowerback 4.99316 2.4425 3.91702
upperback 2.47433 3.41131 0.704442
thorax -0.0620885 1.72875 -1.63046
lowerneck -7.36796 -0.887037 3.6871
upperneck -0.141185 -1.54524 1.84803
head 1.17445 -0.735625 -0.0933401
lclavicle 7.55382e-15 -4.37326e-15 0
lhumerus -39.7586 -22.6619 93.3187
lradius 54.8011 0 0
lwrist 17.3402 0 0
lhand -22.1962 2.01352 0
lfingers 7.12502 0 0
lthumb 4.21936 31.9515 0
rclavicle 7.55382e-15 -4.37326e-15 0
rhumerus -38.1913 14.2795 -94.0831
rradius 57.9319 0 0
rwrist 10.2654 0 0
rhand -11.1636 -18.4989 0
rfingers 7.12502 0 0
rthumb 14.8629 -767.946 0
380
root 5.91047 16.5456 -15.0638 9.48511 -21.3855 -6.93566
lfemur -45.5422 18.8233 -13.3608
ltibia 49.5984 0 0
lfoot -7.8806 4.38055 0
ltoes 13.7156 0 0
rfemur -19.0036 -0.225773 31.4316
rtibia 39.0583 0 0
rfoot -22.8209 0.607687 0
rtoes 18.032 0 0
lowerback 4.87717 2.54056 4.0252
upperback 2.437 3.54153 0.65095
thorax -0.01749 1.79557 -1.74524
lowerneck -7.24744 -0.839742 3.82144
upperneck -0.0382914 -1.48931 1.81721
head 1.18607 -0.706494 -0.123343
lclavicle 6.32373e-15 3.70563e-15 0
lhumerus -39.8777 -22.4898 93.144
lradius 54.6663 0 0
lwrist 17.4151 0 0
lhand -21.8093 2.26133 0
lfingers 7.12502 0 0
lthumb 4.59296 32.1905 0
rclavicle 6.32373e-15 3.70563e-15 0
rhumerus -38.4239 14.5215 -94.2075
rradius 57.6039 0 0
rwrist 10.2641 0 0
rhand -11.6106 -18.6723 0
rfingers 7.12502 0 0
rthumb 14.4321 -768.15 0
381
root 5.85994 16.5462 -14.9126 9.41474 -21.904 -7.05735
lfemur -44.7379 17.2582 -12.6165
ltibia 46.6583 0 0
lfoot -7.70741 6.05402 0
ltoes 14.0642 0 0
rfemur -18.0052 -0.0507645 31.4816
rtibia 38.687 0 0
rfoot -23.0466 0.588905 0
rtoes 17.9307 0 0
lowerback 4.73966 2.63554 4.14373
upperback 2.38961 3.66721 0.600029
thorax 0.0294373 1.86015 -1.86175
lowerneck -7.11478 -0.789709 3.96488
upperneck 0.0887595 -1.43024 1.78611
head 1.20339 -0.675231 -0.154947
lclavicle 3.27503e-15 9.53123e-15 0
lhumerus -40.0401 -22.3113 92.9868
lradius 54.5239 0 0
lwrist 17.5234 0 0
lhand -21.2792 2.57389 0
lfingers 7.12502 0 0
lthumb 5.10473 32.4895 0
rclavicle 3.27503e-15 9.53123e-15 0
rhumerus -38.7126 14.7652 -94.3325
rradius 57.3023 0 0
rwrist 10.2941 0 0
rhand -12.0378 -18.8585 0
rfingers 7.12502 0 0
rthumb 14.0205 -768.364 0
382
root 5.80636 16.5448 -14.7524 9.33484 -22.4181 -7.18649
lfemur -43.8691 15.496 -11.75
ltibia 43.774 0 0
lfoot -7.56396 7.79233 0
ltoes 14.3856 0 0
rfemur -16.9738 0.0600197 31.5425
rtibia 38.3496 0 0
rfoot -23.2848 0.560916 0
rtoes 17.7897 0 0
lowerback 4.5867 2.72558 4.26519
upperback 2.33425 3.78584 0.55297
thorax 0.0766216 1.92114 -1.97479
lowerneck -6.97505 -0.738553 4.11233
upperneck 0.234758 -1.36995 1.75651
head 1.22563 -0.642866 -0.18681
lclavicle 2.30922e-15 1.30896e-14 0
lhumerus -40.237 -22.1338 92.8516
lradius 54.3776 0 0
lwrist 17.6582 0 0
lhand -20.6373 2.93196 0
lfingers 7.12502 0 0
lthumb 5.7244 32.8301 0
rclavicle 2.30922e-15 1.30896e-14 0
rhumerus -39.0455 15.0004 -94.453
rradius 57.0353 0 0
rwrist 10.3504 0 0
rhand -12.4339 -19.0446 0
rfingers 7.12502 0 0
rthumb 13.6388 -768.576 0
383
root 5.75148 16.5416 -14.5888 9.2482 -22.9138 -7.31737
lfemur -42.9764 13.6143 -10.8051
ltibia 41.0503 0 0
lfoot -7.44393 9.51012 0
ltoes 14.6445 0 0
rfemur -15.9469 0.105291 31.6104
rtibia 38.0613 0 0
rfoot -23.5248 0.522252 0
rtoes 17.6018 0 0
lowerback 4.42439 2.80883 4.38217
upperback 2.27299 3.89494 0.511064
thorax 0.121991 1.9772 -2.07913
lowerneck -6.83332 -0.68789 4.25868
upperneck 0.394496 -1.31038 1.73016
head 1.25201 -0.610429 -0.217591
lclavicle 7.32781e-15 1.4367e-14 0
lhumerus -40.4596 -21.9642 92.7429
lradius 54.2315 0 0
lwrist 17.8124 0 0
lhand -19.915 3.31631 0
lfingers 7.12502 0 0
lthumb 6.42169 33.1937 0
rclavicle 7.32781e-15 1.4367e-14 0
rhumerus -39.4107 15.2171 -94.5635
rradius 56.8113 0 0
rwrist 10.4282 0 0
rhand -12.7876 -19.2176 0
rfingers 7.12502 0 0
rthumb 13.2979 -768.772 0
384
root 5.69706 16.5368 -14.4272 9.15757 -23.377 -7.4443
lfemur -42.1004 11.6906 -9.82534
ltibia 38.5924 0 0
lfoot -7.34097 11.122 0
ltoes 14.8057 0 0
rfemur -14.962 0.0837602 31.6818
rtibia 37.8371 0 0
rfoot -23.7564 0.471444 0
rtoes 17.3594 0 0
lowerback 4.2588 2.88346 4.48726
upperback 2.20792 3.99198 0.475604
thorax 0.163474 2.02696 -2.16957
lowerneck -6.69464 -0.639336 4.39884
upperneck 0.562762 -1.25345 1.70885
head 1.28176 -0.578948 -0.245948
lclavicle 2.22323e-14 1.33493e-14 0
lhumerus -40.6992 -21.8099 92.6651
lradius 54.0895 0 0
lwrist 17.979 0 0
lhand -19.1436 3.70771 0
lfingers 7.12502 0 0
lthumb 7.16632 33.5617 0
rclavicle 2.22323e-14 1.33493e-14 0
rhumerus -39.7963 15.405 -94.659
rradius 56.6385 0 0
rwrist 10.5225 0 0
rhand -13.0877 -19.3646 0
rfingers 7.12502 0 0
rthumb 13.0086 -768.938 0
385
root 5.64485 16.5305 -14.2732 9.06575 -23.7936 -7.56157
lfemur -41.2818 9.80239 -8.85452
ltibia 36.505 0 0
lfoot -7.24874 12.5427 0
ltoes 14.834 0 0
rfemur -14.0565 -0.00586118 31.7528
rtibia 37.6923 0 0
rfoot -23.9688 0.407023 0
rtoes 17.0554 0 0
lowerback 4.09601 2.94762 4.57306
upperback 2.1411 4.07449 0.447881
thorax 0.198999 2.06909 -2.24089
lowerneck -6.56408 -0.594506 4.52769
upperneck 0.734348 -1.2011 1.69434
head 1.31408 -0.549454 -0.270539
lclavicle 5.09242e-14 1.00227e-14 0
lhumerus -40.9469 -21.678 92.6227
lradius 53.9554 0 0
lwrist 18.1512 0 0
lhand -18.3546 4.08693 0
lfingers 7.12502 0 0
lthumb 7.92802 33.9154 0
rclavicle 5.09242e-14 1.00227e-14 0
rhumerus -40.1905 15.5539 -94.7341
rradius 56.5251 0 0
rwrist 10.6286 0 0
rhand -13.323 -19.4727 0
rfingers 7.12502 0 0
rthumb 12.7819 -769.061 0
